PathFileType	4	(X/Y/Z)	/Users/itak/Documents/Research/Walk-IL/dataset/trc/00429_00167.trc
DataRate	CameraRate	NumFrames	NumMarkers	Units	OrigDataRate	OrigDataStartFrame	OrigNumFrames
100.000000	100.000000	4	53	mm	100.000000	168	673
Frame#	Time	RPSI			LPSI			L3			STRN			T10			C7			CLAV			RBAK			LBAK			LSHO			LUPA			LAEL			LAOL			LWTS			LWPS			LFRA			LIFD			LHPS			LHTS			RSHO			RUPA			RAEL			RAOL			RWTS			RWPS			RFRA			RIFD			RHTS			RHPS			RBHD			LFHD			RFHD			LBHD			LHIP			RHIP			RASI			LASI			LKNE			LTHI			LANK			LTIP			LTOE			LMT1			LMT5			LHEE			RKNE			RTHI			RANK			RTIP			RTOE			RMT1			RMT5			RHEE			
		X1	Y1	Z1	X2	Y2	Z2	X3	Y3	Z3	X4	Y4	Z4	X5	Y5	Z5	X6	Y6	Z6	X7	Y7	Z7	X8	Y8	Z8	X9	Y9	Z9	X10	Y10	Z10	X11	Y11	Z11	X12	Y12	Z12	X13	Y13	Z13	X14	Y14	Z14	X15	Y15	Z15	X16	Y16	Z16	X17	Y17	Z17	X18	Y18	Z18	X19	Y19	Z19	X20	Y20	Z20	X21	Y21	Z21	X22	Y22	Z22	X23	Y23	Z23	X24	Y24	Z24	X25	Y25	Z25	X26	Y26	Z26	X27	Y27	Z27	X28	Y28	Z28	X29	Y29	Z29	X30	Y30	Z30	X31	Y31	Z31	X32	Y32	Z32	X33	Y33	Z33	X34	Y34	Z34	X35	Y35	Z35	X36	Y36	Z36	X37	Y37	Z37	X38	Y38	Z38	X39	Y39	Z39	X40	Y40	Z40	X41	Y41	Z41	X42	Y42	Z42	X43	Y43	Z43	X44	Y44	Z44	X45	Y45	Z45	X46	Y46	Z46	X47	Y47	Z47	X48	Y48	Z48	X49	Y49	Z49	X50	Y50	Z50	X51	Y51	Z51	X52	Y52	Z52	X53	Y53	Z53	

169	1.68	-1040.94189453125	938.27685546875	-405.239990234375	-967.70654296875	940.1365966796875	-528.2626953125	-997.205322265625	1043.60546875	-456.3560180664062	-750.4483032226562	1230.143676757812	-335.8663635253906	-1004.866088867188	1166.82373046875	-472.1653747558594	-947.1199951171875	1433.767578125	-431.1500854492188	-779.4546508789062	1345.170288085938	-354.4289245605469	-1050.092895507812	1314.916259765625	-379.4664611816406	-926.5426025390625	1388.029174804688	-534.1453857421875	-796.0746459960938	1404.595092773438	-552.0171508789062	-756.8495483398438	1287.939575195312	-646.0104370117188	-724.0216674804688	1070.64111328125	-667.4881591796875	-826.3920288085938	1057.537109375	-655.6432495117188	-685.25146484375	863.9864501953125	-595.2742309570312	-694.2908325195312	851.9616088867188	-668.0950317382812	-703.5100708007812	982.5892944335938	-668.1703491210938	-686.385986328125	695.417724609375	-604.9143676757812	-692.1550903320312	771.0841064453125	-667.2703247070312	-670.5145263671875	773.4981689453125	-599.3639526367188	-963.3729248046875	1401.339233398438	-256.5688171386719	-1018.624084472656	1342.809692382812	-199.8377685546875	-1067.176391601562	1061.704223632812	-144.8029327392578	-1092.1748046875	1044.258178710938	-205.9512634277344	-965.8733520507812	857.0475463867188	-121.8722152709961	-1052.293823242188	846.2536010742188	-107.7149353027344	-1071.595703125	1003.5712890625	-132.79833984375	-976.5691528320312	699.1309204101562	-101.8295822143555	-964.6090698242188	757.2871704101562	-96.43829345703125	-1040.260986328125	760.0947265625	-94.96620941162109	-917.842041015625	1625.76025390625	-319.0778198242188	-724.7307739257812	1644.764892578125	-392.0078735351562	-787.44677734375	1646.1953125	-277.1746520996094	-846.5872192382812	1628.364135742188	-482.5247192382812	-799.45849609375	836.4716186523438	-569.96435546875	-988.5791015625	852.3506469726562	-213.9881439208984	-875.4916381835938	897.6599731445312	-240.25830078125	-745.2083129882812	873.1112060546875	-456.9869079589844	-875.54638671875	416.7552795410156	-528.6046142578125	-821.3287963867188	566.0911254882812	-535.6083984375	-1024.175659179688	34.54391860961914	-581.7186889648438	-914.5625610351562	264.9069213867188	-543.4993286132812	-892.300048828125	42.60015869140625	-388.7845458984375	-965.1981201171875	48.00867080688477	-413.9424438476562	-895.8535766601562	44.88766479492188	-504.9219360351562	-1098.9140625	40.71831512451172	-577.212890625	-818.8870849609375	496.1227416992188	-136.7429962158203	-912.5154418945312	742.369873046875	-164.4550933837891	-808.3916015625	62.67812728881836	-111.4749908447266	-814.1997680664062	349.5038452148438	-108.3240814208984	-603.7435913085938	104.7222442626953	-52.31703948974609	-640.3307495117188	96.16902160644531	-115.4514465332031	-705.5039672851562	85.75621032714844	-32.83089065551758	-843.5210571289062	47.24406433105469	-183.2454071044922	
170	1.69	-1037.399658203125	936.709716796875	-402.3033752441406	-964.1673583984375	938.5969848632812	-525.3017578125	-994.1904296875	1042.0634765625	-453.4203186035156	-747.3595581054688	1228.711181640625	-333.0980224609375	-1002.0654296875	1165.38525390625	-469.130615234375	-944.2022705078125	1432.251953125	-427.9955444335938	-776.4976806640625	1343.748291015625	-351.4720458984375	-1047.110961914062	1313.338745117188	-376.3877868652344	-923.6593627929688	1386.641479492188	-531.0847778320312	-793.223388671875	1403.2724609375	-549.01171875	-753.8404541015625	1286.798095703125	-643.1058959960938	-720.4878540039062	1069.637329101562	-664.9920043945312	-822.8687133789062	1056.296508789062	-653.3026123046875	-681.2683715820312	863.0204467773438	-592.915283203125	-690.1981201171875	851.0393676757812	-665.7581176757812	-699.7561645507812	981.6461791992188	-665.7271728515625	-681.732177734375	694.5617065429688	-602.7364501953125	-687.8626098632812	770.1640625	-665.0403442382812	-666.37255859375	772.5481567382812	-597.0746459960938	-960.361328125	1399.623291015625	-253.4253540039062	-1015.656127929688	1341.019653320312	-196.8000183105469	-1064.649536132812	1059.906127929688	-142.3585052490234	-1089.543579101562	1042.710205078125	-203.6434326171875	-964.290283203125	854.7180786132812	-119.8408889770508	-1050.776245117188	844.3010864257812	-105.8887023925781	-1069.29150390625	1001.757934570312	-130.5505676269531	-975.7999877929688	696.7897338867188	-100.3114776611328	-963.5128784179688	755.1610107421875	-94.785888671875	-1039.201416015625	758.0383911132812	-93.35613250732422	-914.9500732421875	1624.169921875	-315.8780517578125	-721.8325805664062	1643.32470703125	-388.781005859375	-784.532958984375	1644.685424804688	-273.9869384765625	-843.6851196289062	1626.825805664062	-479.3121337890625	-796.0551147460938	835.6131591796875	-567.6942749023438	-984.5225830078125	850.5963745117188	-211.2972259521484	-871.2935180664062	896.1619262695312	-237.5747985839844	-741.7255249023438	872.0574340820312	-454.8768920898438	-873.2699584960938	415.9978942871094	-527.226318359375	-818.6051025390625	565.3526611328125	-533.749267578125	-1024.188598632812	34.68200302124023	-581.690185546875	-913.3131103515625	264.28955078125	-542.6489868164062	-892.1893920898438	42.56661987304688	-388.7699279785156	-965.1213989257812	48.07057952880859	-413.9686279296875	-895.7620849609375	44.82456207275391	-504.9642028808594	-1098.980834960938	40.93046951293945	-577.13134765625	-815.781982421875	493.6541442871094	-134.7119903564453	-909.489013671875	740.6073608398438	-162.1603393554688	-792.7095336914062	61.08341979980469	-101.19921875	-806.9656982421875	347.9100036621094	-103.6041564941406	-588.916259765625	109.2634429931641	-43.97611999511719	-625.6507568359375	98.75904083251953	-106.7352676391602	-689.9970703125	87.88117980957031	-23.56545257568359	-827.9067993164062	43.77978134155273	-172.5163269042969	
171	1.7	-1033.748046875	935.0914306640625	-399.3316955566406	-960.5488891601562	937.05712890625	-522.2879028320312	-991.0870971679688	1040.481201171875	-450.4148559570312	-744.1892700195312	1227.242309570312	-330.216064453125	-999.2125854492188	1163.913696289062	-466.0015563964844	-941.2074584960938	1430.695922851562	-424.721435546875	-773.45751953125	1342.285766601562	-348.4145202636719	-1044.052612304688	1311.729858398438	-373.1812744140625	-920.71630859375	1385.211669921875	-527.9043579101562	-790.2987670898438	1401.898803710938	-545.902099609375	-750.7840576171875	1285.591186523438	-640.0912475585938	-716.923828125	1068.568481445312	-662.3672485351562	-819.3218383789062	1054.99853515625	-650.8082885742188	-677.2423095703125	861.9765625	-590.4677124023438	-686.0987548828125	850.05224609375	-663.3256225585938	-695.9881591796875	980.6367797851562	-663.1719970703125	-677.0670166015625	693.6183471679688	-600.4967651367188	-683.5673217773438	769.1756591796875	-662.7255249023438	-662.1778564453125	771.5281982421875	-594.7167358398438	-957.238037109375	1397.867431640625	-250.1610565185547	-1012.569030761719	1339.18896484375	-193.6286773681641	-1062.013671875	1058.062133789062	-139.7903747558594	-1086.809448242188	1041.129638671875	-201.2144775390625	-962.6154174804688	852.3291015625	-117.7376861572266	-1049.171997070312	842.2988891601562	-103.9793853759766	-1066.881225585938	999.9028930664062	-128.1881561279297	-974.9684448242188	694.39208984375	-98.73806762695312	-962.3823852539062	753.016357421875	-93.09474945068359	-1038.065307617188	755.9361572265625	-91.67244720458984	-911.9674072265625	1622.5126953125	-312.5560913085938	-718.869384765625	1641.842163085938	-385.4475402832031	-781.5397338867188	1643.127563476562	-270.6754760742188	-840.7078857421875	1625.248779296875	-475.9947509765625	-792.5574340820312	834.7194213867188	-565.3192749023438	-980.470703125	848.8070068359375	-208.5790100097656	-867.0527954101562	894.6161499023438	-234.7819366455078	-738.1618041992188	870.9865112304688	-452.63671875	-870.917724609375	415.2249145507812	-525.8065185546875	-815.7789916992188	564.5969848632812	-531.8276977539062	-1024.200805664062	34.83961486816406	-581.6619262695312	-912.0049438476562	263.680908203125	-541.7981567382812	-892.0645751953125	42.52558517456055	-388.7499694824219	-965.0316162109375	48.1470947265625	-414.0075073242188	-895.6644897460938	44.75962066650391	-505.019287109375	-1099.045776367188	41.19643020629883	-577.0396118164062	-812.6558227539062	491.212890625	-132.5882720947266	-906.3824462890625	738.7218017578125	-159.7092742919922	-777.274658203125	59.93452453613281	-91.22035217285156	-799.8179321289062	346.4574279785156	-98.95669555664062	-574.43212890625	114.0120468139648	-36.07662200927734	-611.2900390625	101.6342926025391	-98.41248321533203	-674.7716064453125	90.28480529785156	-14.68596839904785	-812.5191040039062	40.85578918457031	-162.0686798095703	
172	1.71	-1029.978393554688	933.4213256835938	-396.3034362792969	-956.886962890625	935.5654296875	-519.2218017578125	-987.8927001953125	1038.864501953125	-447.3418884277344	-740.9354858398438	1225.746948242188	-327.2174377441406	-996.292724609375	1162.408325195312	-462.78271484375	-938.1343994140625	1429.105590820312	-421.3291015625	-770.3302001953125	1340.792114257812	-345.2592163085938	-1040.914672851562	1310.09033203125	-369.849853515625	-917.7112426757812	1383.744506835938	-524.6051635742188	-787.2970581054688	1400.48046875	-542.6854858398438	-747.6769409179688	1284.324462890625	-636.96435546875	-713.3353881835938	1067.4375	-659.6088256835938	-815.748779296875	1053.64697265625	-648.1500244140625	-673.18408203125	860.859619140625	-587.9299926757812	-682.0016479492188	849.00341796875	-660.794921875	-692.21484375	979.5607299804688	-660.5038452148438	-672.3982543945312	692.5931396484375	-598.1704711914062	-679.2716064453125	768.1246948242188	-660.3150634765625	-657.9348754882812	770.4442138671875	-592.287109375	-954.0076293945312	1396.078979492188	-246.7755432128906	-1009.363891601562	1337.324829101562	-190.3229217529297	-1059.261474609375	1056.177978515625	-137.0959167480469	-1083.969482421875	1039.522583007812	-198.6563262939453	-960.8432006835938	849.8866577148438	-115.5605316162109	-1047.473022460938	840.2548217773438	-101.9781799316406	-1064.360961914062	998.0126953125	-125.7053756713867	-974.06494140625	691.9485473632812	-97.1063232421875	-961.197998046875	750.7891845703125	-91.33940887451172	-1036.8427734375	753.7946166992188	-89.91453552246094	-908.887939453125	1620.799926757812	-309.1143493652344	-715.8361206054688	1640.321899414062	-382.0052795410156	-778.4661865234375	1641.526489257812	-267.2369079589844	-837.6537475585938	1623.646362304688	-472.572509765625	-788.981689453125	833.7941284179688	-562.844970703125	-976.4129638671875	846.9896850585938	-205.8170928955078	-862.7783813476562	893.0318603515625	-231.8744201660156	-734.5232543945312	869.8995361328125	-450.2691955566406	-868.4985961914062	414.4342651367188	-524.3330078125	-812.8516845703125	563.8236083984375	-529.84765625	-1024.20947265625	35.02560043334961	-581.6243286132812	-910.6392822265625	263.0842895507812	-540.9410400390625	-891.9237670898438	42.47478866577148	-388.72802734375	-964.931884765625	48.23439407348633	-414.0511169433594	-895.5673217773438	44.69245529174805	-505.0841369628906	-1099.108520507812	41.52272033691406	-576.9323120117188	-809.476806640625	488.8265991210938	-130.3605499267578	-903.0997924804688	736.7080688476562	-157.0526123046875	-762.17041015625	59.20258331298828	-81.59014892578125	-792.7694091796875	345.1517639160156	-94.38932800292969	-560.35205078125	118.9018707275391	-28.63233375549316	-597.3080444335938	104.738166809082	-90.50704956054688	-659.8977661132812	92.91207885742188	-6.220092296600342	-797.44580078125	38.4573974609375	-151.9586181640625	
